<?xml version="1.0" encoding="UTF-8" standalone="no"?>
<svg
   xmlns:dc="http://purl.org/dc/elements/1.1/"
   xmlns:cc="http://creativecommons.org/ns#"
   xmlns:rdf="http://www.w3.org/1999/02/22-rdf-syntax-ns#"
   xmlns:svg="http://www.w3.org/2000/svg"
   xmlns="http://www.w3.org/2000/svg"
   xmlns:sodipodi="http://sodipodi.sourceforge.net/DTD/sodipodi-0.dtd"
   xmlns:inkscape="http://www.inkscape.org/namespaces/inkscape"
   height="512pt"
   version="1.1"
   viewBox="-26 0 512 512.00002"
   width="512pt"
   id="svg23"
   sodipodi:docname="spice.svg"
   inkscape:version="0.92.4 (5da689c313, 2019-01-14)">
  <metadata
     id="metadata29">
    <rdf:RDF>
      <cc:Work
         rdf:about="">
        <dc:format>image/svg+xml</dc:format>
        <dc:type
           rdf:resource="http://purl.org/dc/dcmitype/StillImage" />
        <dc:title></dc:title>
      </cc:Work>
    </rdf:RDF>
  </metadata>
  <defs
     id="defs27" />
  <sodipodi:namedview
     pagecolor="#ffffff"
     bordercolor="#666666"
     borderopacity="1"
     objecttolerance="10"
     gridtolerance="10"
     guidetolerance="10"
     inkscape:pageopacity="0"
     inkscape:pageshadow="2"
     inkscape:window-width="1920"
     inkscape:window-height="1017"
     id="namedview25"
     showgrid="false"
     inkscape:zoom="0.69140625"
     inkscape:cx="189.93115"
     inkscape:cy="374.89189"
     inkscape:window-x="-8"
     inkscape:window-y="-8"
     inkscape:window-maximized="1"
     inkscape:current-layer="surface1" />
  <g
     id="surface1">
    <path
       d="M 359.03931,326.63563 V 167.73719 c 0.0274,-9.73828 -262.847904,0.0167 -253.10962,-0.0145 H 406.07031 V 17.65625 C 406.03906,7.917969 398.15234,0.0273438 388.41406,0 H 114.75781 v 88.277344 c 0,9.75 -7.90234,17.652346 -17.652341,17.652346 H 0 v 388.41406 c 0.0273438,9.73828 7.917969,17.625 17.65625,17.65625 h 370.75781 c 9.73828,-0.0312 17.625,-7.91797 17.65625,-17.65625 V 361.92969 H 105.92969 c -9.738284,-0.0274 228.59197,7.42656 253.10962,-35.29406 z"
       style="fill:#ffe8cc;fill-opacity:1;fill-rule:nonzero;stroke:none"
       id="path2"
       inkscape:connector-curvature="0"
       sodipodi:nodetypes="cccccccsscccccccc" />
    <path
       d="M 114.757812 512 L 388.414062 512 C 398.164062 512 406.070312 504.09375 406.070312 494.34375 L 406.070312 239.148438 C 357.847656 371.226562 249.707031 472.515625 114.757812 512 Z M 114.757812 512 "
       style=" stroke:none;fill-rule:nonzero;fill:rgb(100%,88.627451%,74.117647%);fill-opacity:1;"
       id="path4" />
    <path
       d="M 434.49489,167.72266 H 201.06132 c -6.77671,0.0312 -12.26495,7.91796 -12.28398,17.65625 v 158.89453 c 0.019,9.74218 5.50727,17.6289 12.28398,17.65625 h 233.43357 c 6.77671,-0.0274 12.26767,-7.91407 12.2867,-17.65625 V 185.37891 c -0.0217,-9.73829 -5.50999,-17.625 -12.2867,-17.65625 z m -178.14617,97.10546 h -36.85736 v 52.96485 -105.92969 52.96484 z m 86.00141,-17.65625 c 0,9.75 -5.49911,17.65625 -12.28397,17.65625 h -36.86008 v -52.96875 h 36.86008 c 6.78486,0 12.28397,7.90625 12.28397,17.65625 z m 73.71744,-17.65625 c 0.16854,-9.5039 -5.05603,-17.40234 -11.66964,-17.64843 -0.10057,-0.004 -0.20387,-0.004 -0.30445,-0.004 h -24.88599 c -6.78486,0 -12.28397,7.90234 -12.28397,17.65234 v 17.65625 c 0,9.75 5.49911,17.65625 12.28397,17.65625 h 24.57339 c 6.78486,0 12.28398,7.90235 12.28398,17.65235 v 17.65625 c 0,9.75 -5.49912,17.65625 -12.28398,17.65625 h -24.57339 c -6.72234,0 -12.19698,-7.76563 -12.28397,-17.42578 0.087,9.66015 5.56163,17.42578 12.28397,17.42578 h 24.57339 c 6.78486,0 12.28398,-7.90625 12.28398,-17.65625 v -17.65625 c 0,-9.75 -5.49912,-17.65235 -12.28398,-17.65235 h -24.57339 c -6.78486,0 -12.28397,-7.90625 -12.28397,-17.65625 v -17.65625 c 0,-9.75 5.49911,-17.65234 12.28397,-17.65234 h 24.88599 c 6.61633,0 11.97681,7.71094 11.97681,17.21484 0,0.14844 -0.003,0.29297 -0.003,0.4375 z m 0,0"
       style="fill:#cafdff;fill-opacity:1;fill-rule:nonzero;stroke:none;stroke-width:0.83419633"
       id="path6"
       inkscape:connector-curvature="0" />
    <path
       d="m 291.30859,211.86328 h -52.96484 v 52.96484 h 52.96484 c 9.75391,0 42.95781,5.22411 50.63859,-0.78156 7.09334,-5.54634 73.95188,-46.81742 4.60218,-56.0039 -9.66943,-1.28087 -45.48686,3.82062 -55.24077,3.82062 z"
       style="fill:#cafdff;fill-opacity:1;fill-rule:nonzero;stroke:none"
       id="path8"
       inkscape:connector-curvature="0"
       sodipodi:nodetypes="sccssss" />
    <path
       d="M 114.757812 88.277344 L 114.757812 0 L 0 105.929688 L 97.105469 105.929688 C 106.855469 105.929688 114.757812 98.027344 114.757812 88.277344 Z M 114.757812 88.277344 "
       style=" stroke:none;fill-rule:nonzero;fill:rgb(100%,66.27451%,57.647059%);fill-opacity:1;"
       id="path10" />
    <path
       d="m 338.84375,326.62109 c -4.875,0 -8.82422,-3.95312 -8.82422,-8.82812 V 211.86328 c 0,-4.875 3.94922,-8.82812 8.82422,-8.82812 h 52.96875 c 14.625,0 26.48047,11.85546 26.48047,26.48046 v 17.65625 c 0,14.625 -11.85547,26.48438 -26.48047,26.48438 h -44.14063 v 44.13672 c 0,4.875 -3.95312,8.82812 -8.82812,8.82812 z M 347.67187,256 h 44.14063 c 4.875,0 8.82812,-3.95313 8.82812,-8.82813 v -17.65625 c 0,-4.875 -3.95312,-8.82421 -8.82812,-8.82421 h -44.14063 z m 0,0"
       style="fill:#eb1923;fill-opacity:1;fill-rule:nonzero;stroke:none"
       id="path12"
       inkscape:connector-curvature="0" />
    <path
       d="m 286.24219,273.65625 h -35.3086 c -14.6289,0 -26.48437,-11.85938 -26.48437,-26.48438 v -17.65234 c 0,-14.62891 11.85547,-26.48437 26.48437,-26.48437 h 35.75782 c 14.38672,0.008 26.04687,11.67187 26.03906,26.0625 0,0.19921 0,0.39843 -0.008,0.59765 -0.27344,4.76953 -4.15625,8.53125 -8.9336,8.65235 -4.83203,-0.0586 -8.71875,-3.9961 -8.71875,-8.82813 0.10547,-2.33984 -0.7539,-4.62109 -2.38672,-6.30469 -1.57031,-1.61718 -3.73437,-2.53125 -5.99218,-2.52343 H 250.9295 c -4.875,0 -8.82422,3.95312 -8.82422,8.82812 v 17.65234 c 0,4.87891 3.94922,8.82813 8.82422,8.82813 h 35.3125 c 4.875,0 8.82812,3.95312 8.82812,8.82812 0,4.875 -3.95312,8.82813 -8.82812,8.82813 z m 0,0"
       style="fill:#eb1923;fill-opacity:1;fill-rule:nonzero;stroke:none"
       id="path14"
       inkscape:connector-curvature="0" />
    <path
       d="m 286.24219,326.62109 h -35.3086 c -14.47265,-0.0508 -26.24218,-11.67187 -26.48437,-26.14062 -0.0664,-4.88281 3.80469,-8.91406 8.6875,-9.04688 h 0.14062 c 4.78907,-0.0586 8.73047,3.75391 8.82813,8.54297 -0.0391,4.91797 3.91016,8.94141 8.82812,8.98828 h 35.3086 c 4.875,0 8.82812,-3.95312 8.82812,-8.82812 v -17.65625 c 0,-4.875 -3.95312,-8.82422 -8.82812,-8.82422 h -35.3086 c -4.875,0 -8.82812,-3.95313 -8.82812,-8.82813 0,-4.875 3.95312,-8.82812 8.82812,-8.82812 h 35.3086 c 14.625,0 26.48047,11.85547 26.48047,26.48047 v 17.65625 c 0,14.6289 -11.85547,26.48437 -26.48047,26.48437 z m 0,0"
       style="fill:#eb1923;fill-opacity:1;fill-rule:nonzero;stroke:none"
       id="path16"
       inkscape:connector-curvature="0" />
  </g>
</svg>
